<svg id="Layer_1" data-name="Layer 1" xmlns="http://www.w3.org/2000/svg" viewBox="0 0 1769.94 403.69">
<defs>
<style>.cls-1{fill:#95a5a6;}.cls-2{fill:#f4ffff;}.cls-3{fill:#e67e22;}</style>
</defs>

<path class="cls-1" d="M517.37,352.21c-2.16,6.63-7.63,19.41-10.45,23.88-5,.67-15.43,3.49-27.37,3.49-28.53,0-49.1-17.59-49.1-47.94,0-39.15,30.52-64.69,67.67-64.69a100.11,100.11,0,0,1,28.87,4c-1.16,5.64-2.49,16.75-3.32,25l-5.14.34c-.33-19.41-8.46-23.39-24-23.39-28.37,0-48.11,27.53-48.11,58.55,0,25,12.28,42,34.5,42,16.26,0,23.89-9.62,32-23.39Z" transform="translate(-61.31 -266.95)"/>

<path class="cls-1" d="M532.13,318c8.29-9.79,17.08-15.76,21.89-15.76,5.64,0,5.14,8.79,2,23.06l-1,4.47c9-15.26,20.4-27.53,27-27.53a7.69,7.69,0,0,1,7.63,7.46c0,3.65-3.49,8.63-6.47,10.62-1.5,1-2.82,1-3.65,0-1.83-2-3.49-4.81-5.48-4.81-3.81,0-11.94,11.78-15.76,18.58-5.8,10.45-8.79,25.71-12.1,41.63a93.54,93.54,0,0,0-12.11,3.32L533,377.92c4-15.26,9.78-40.48,12.1-52.58,1.83-9.29,1.33-10.79.17-10.79-1.66,0-5.81,2.66-10.78,7.63Z" transform="translate(-61.31 -266.95)"/>

<path class="cls-1" d="M612.24,379.08c-8,0-18.74-4.64-18.74-24.72,0-15.42,6.63-33.83,19.74-43.46,7.46-5.3,15.26-8.62,22.39-8.62,9.46,0,14.77,6,14.77,13.27,0,16.59-24.39,24.38-43,27.7-.16,2-.33,5.31-.33,7,0,9.62,2.66,18.91,12.94,18.91,7.46,0,16.42-4.65,24.55-13.11l2.49,4.15C633.64,375.76,620.54,379.08,612.24,379.08Zm-4.14-41.3c24-4.32,29.69-11.95,29.85-19.58,0-5.64-3.31-8.79-8.62-8.79C624.35,309.41,612.91,313.06,608.1,337.78Z" transform="translate(-61.31 -266.95)"/>

<path class="cls-1" d="M731.67,362.16c-8.13,10.95-18.41,16.92-23,16.92S702,375.26,705,360.17l2.32-11.45a92.16,92.16,0,0,1-19.91,22.4c-5.31,4.31-11.61,8-17.08,8-5.81,0-10.62-7.13-10.62-20.57,0-15.59,7.13-32.84,18.41-43.13,8.63-8,20.57-13.1,31.69-13.1,8.46,0,16.09,2.49,19.24,2.82-3,10.45-8.79,36-11.95,54.74-.82,4.64-.49,6.47.83,6.47,2,0,5.48-2.16,11.45-8.3Zm-30-13.77a58.56,58.56,0,0,0,9.62-19.9,147.14,147.14,0,0,0,3.65-16.26,33.37,33.37,0,0,0-12.61-2.65c-19.57,0-28.7,25.21-28.7,46.77,0,6.64,1.83,10.95,5.15,10.95C683.9,367.3,691.2,362.16,701.65,348.39Z" transform="translate(-61.31 -266.95)"/>

<path class="cls-1" d="M786.58,310.07c-3.32.34-11.78,1-16.76,1-7.46,34.5-9.78,45.12-10.61,50.1-.83,5.14.16,6.63,1.65,6.63,3.32,0,8.8-4.31,14.93-10.45L778,361.5c-5.31,8.12-18.25,17.58-25.38,17.58-5.8,0-8.62-4.48-4.31-24.05l9.62-44H744.61v-1.49l4.81-5.31h10l3.82-17.75a95.23,95.23,0,0,0,13.1-9.12l1.49.83c-2,6.63-4.64,17.41-6.46,26h18.41Z" transform="translate(-61.31 -266.95)"/>

<path class="cls-1" d="M823.07,362.66c-8.3,11.11-18.75,16.42-23.72,16.42-4.32,0-6.14-4.31-3-17.58,2.65-10.95,7.3-28.7,10.45-42.14.66-3.15.5-4.64-.5-4.64-1.66,0-6.63,3.32-10.95,7.46l-2.15-4.31c7.79-8.46,19.07-15.59,24.38-15.59,4.15,0,4.31,5.64,1.33,17.91-3.15,11.95-7.13,28.7-10.12,40.48-1.16,4.48-1.16,6.3,0,6.3,1.66,0,6.14-2.32,11.94-8.46Zm4.64-86.92c0,5.14-3.65,9.62-8.79,9.62a7.1,7.1,0,0,1-7.3-7.47c0-4.31,3.32-9.78,9.29-9.78C825.39,268.11,827.71,271.59,827.71,275.74Z" transform="translate(-61.31 -266.95)"/>

<path class="cls-1" d="M833.18,318.37c6.31-8.79,14.93-16.09,20.07-16.09,4.32,0,6.47,5.14,7.14,18.58,1,16.25,1.16,32.34,1.49,42.46,7.46-9.12,26.71-31.18,26.71-43a16.79,16.79,0,0,0-2.66-8,3.33,3.33,0,0,1-.33-3.49c1-2.82,5.81-6.63,9.62-6.63,4,0,6.14,3.81,6.3,9.45,0,5.15-2.32,13.11-9.95,23.89-9.29,13.27-25.88,32-35.66,43.46H851.1c-.67-16.92-1.5-40-2.49-54.24-.66-8.63-1.66-10.29-3.32-10.29-1.16,0-4.14,1.5-9.45,7.8Z" transform="translate(-61.31 -266.95)"/>

<path class="cls-1" d="M931.38,379.08c-8,0-18.75-4.64-18.75-24.72,0-15.42,6.64-33.83,19.74-43.46,7.47-5.3,15.26-8.62,22.4-8.62,9.45,0,14.76,6,14.76,13.27,0,16.59-24.38,24.38-43,27.7-.17,2-.33,5.31-.33,7,0,9.62,2.65,18.91,12.93,18.91,7.47,0,16.43-4.65,24.55-13.11l2.49,4.15C952.78,375.76,939.67,379.08,931.38,379.08Zm-4.15-41.3c24-4.32,29.69-11.95,29.86-19.58,0-5.64-3.32-8.79-8.63-8.79C943.49,309.41,932,313.06,927.23,337.78Z" transform="translate(-61.31 -266.95)"/>

<path class="cls-2" d="M927,445.06h22.33c3.67,0,6-2.1,6-6v-20c0-3.68-2.11-6.83-6-6.83H927c-4.2,0-6.3,2.63-6.3,6.83v20C920.68,442.69,923.31,445.06,927,445.06Z" transform="translate(-61.31 -266.95)"/>

<path class="cls-2" d="M1471.36,458.71c-18.91,0-32.56,10-44.38,19.17l-5.78-17.59h-24.68v65.43A148.08,148.08,0,0,1,1427,517.2V504.67c13.13-11.82,24.16-15.5,41.49-15.5a170.41,170.41,0,0,1,19.7,1.05V460.55C1484.75,459.24,1477.93,458.71,1471.36,458.71Z" transform="translate(-61.31 -266.95)"/>

<path class="cls-2" d="M1396.52,599.73H1427V535.52a130.46,130.46,0,0,0-30.46,9.86Z" transform="translate(-61.31 -266.95)"/>

<path class="cls-2" d="M545.42,518.76,599,517V492.06l-46.29-1.5c-.64,5.87-2.57,12.23-4.61,18.93C547.25,512.27,546.27,515.52,545.42,518.76Z" transform="translate(-61.31 -266.95)"/>

<path class="cls-2" d="M610.55,411.71c-10.77-1.58-84-4.21-84-4.21-17.85-.52-38.6,7.36-38.6,37.82V564c0,33.35,23.9,37.29,41.23,36.5,0,0,72-3.15,81.41-4.47V571.37h-75.9c-7.61,0-16,.26-16.28-13.66V519.64l8.41-.28c1-5.07,2.6-10.2,4.09-15.1A132.07,132.07,0,0,0,534.63,490l-9.84-.32-6.42-.21V451.36c0-7.09,0-14.71,13.66-14.71h78.52Z" transform="translate(-61.31 -266.95)"/>

<path class="cls-2" d="M750.4,488.35c-9,5.89-18.52,12-28.51,17.85v93.53h30.46V505.19A69.32,69.32,0,0,0,750.4,488.35Z" transform="translate(-61.31 -266.95)"/>

<path class="cls-2" d="M710.07,457.92c-21.27,0-33.35,8.93-46.74,17.86l-6.83-15.49H632.87V599.73h30.46V496.79c14.18-8.67,23.11-13.13,40.18-13.13,5.26,0,9.76,1.52,13,4.8,9.12-5.45,17.87-11.12,26.16-16.56C736,463.36,725.44,457.92,710.07,457.92Z" transform="translate(-61.31 -266.95)"/>

<path class="cls-2" d="M905.19,459.76H821.42a70.39,70.39,0,0,0-11.26.87c-23.15,3.74-36,19.82-36,48.76,0,13.92,3.94,31.25,15.49,38.61-11.29,2.89-16,13.39-16,23.63,0,11,4.73,20.22,12.08,25l-11.55,14.18v19.43c0,27.58,18.12,40.44,42.8,40.44h39.39c34.4,0,42.28-22,42.28-40.44V614.44c0-25.74-14.7-39.39-38.6-39.39H812.49c-5.78,0-10.77-1.32-10.77-7.62s6.57-6.83,10.77-6.83h35.45c18.54,0,29.86-6.91,36.63-16.15a121.48,121.48,0,0,1-29.25-13.29c-3.05,2.16-7.09,3.45-12.37,3.45H824.3c-15.75,0-19.69-12.35-19.69-25.22,0-10.72,2.6-21.45,16-23.34a32.1,32.1,0,0,1,4.43-.29h17.6c15.75,0,20.22,7.62,20.74,23.63a41.3,41.3,0,0,1-.11,5.46c7.28,5,16.61,9.45,28.71,13.07A67.47,67.47,0,0,0,893.9,512c0-17.59-3.68-22.58-6.31-28.36l17.6-4.73Zm-100.58,140A52.34,52.34,0,0,0,815.9,601h37c12.34,0,15.23,5.26,15.23,14.71v12.08c0,9.72-2.63,17.07-16.54,17.07h-28.1c-9.46,0-18.91-1.84-18.91-17.6Z" transform="translate(-61.31 -266.95)"/>

<polygon class="cls-2" points="861.21 193.34 861.21 266.32 861.21 284.38 861.21 332.78 891.67 332.78 891.67 282.89 891.67 264.69 891.67 193.34 861.21 193.34"/>

<path class="cls-2" d="M979.77,599.73h30.46V537.41c-9.2,2.75-19.56,5.52-30.46,7.87Z" transform="translate(-61.31 -266.95)"/>

<path class="cls-2" d="M1098,491.64a47.21,47.21,0,0,0-6.77-17.38c-6.57-9.89-17.55-16.34-34.29-16.34-21.27,0-33.35,8.93-46.74,17.86l-6.83-15.49H979.77v66.56c9.82-2.21,20-5,30.46-8.24V496.79c14.18-8.67,23.11-13.13,40.18-13.13,7,0,12.65,2.69,15.76,8.67a27.15,27.15,0,0,1,2.62,12.6v94.8h30.46V505.19A72.2,72.2,0,0,0,1098,491.64Z" transform="translate(-61.31 -266.95)"/>

<path class="cls-2" d="M1201.75,543.46c23-.9,34.58-11.72,34.58-34.07q0-4.22-.21-8c-2.19,2.83-4.33,5.64-6.4,8.37C1219.91,522.67,1210.78,534.66,1201.75,543.46Z" transform="translate(-61.31 -266.95)"/>

<path class="cls-2" d="M1177.05,484.2h3.87c21.54,0,24.95,2.88,24.95,24.15a15.44,15.44,0,0,1-.36,3.38c3.39-4.3,6.72-8.69,9.88-12.84,5.25-6.9,10.54-13.85,15.91-20.41-8-17.28-25.34-19.23-52-19.23-1.34,0-2.66,0-3.95,0C1177.5,466.3,1177.69,474.86,1177.05,484.2Z" transform="translate(-61.31 -266.95)"/>

<path class="cls-2" d="M1177.25,575.31c-20,0-28.37-3.94-28.37-31.78H1176L1187,532.59a147.4,147.4,0,0,0,13.24-14.37,18.64,18.64,0,0,1-7.79,1.42h-43.6c0-19.91,3-28.63,9.84-32.46,1-11.37,1.12-22.54-2.25-26.17a3.09,3.09,0,0,0-.31-.28c-26.67,4.38-37.74,20.16-37.74,68.62,0,52.52,10.51,71.69,46,71.69,21.79,0,49.1-.52,69.33-7.35V572.42C1214,575.57,1199.57,575.31,1177.25,575.31Z" transform="translate(-61.31 -266.95)"/>

<path class="cls-2" d="M1340,575.17c-7.56.18-15.52.14-24.87.14h-.6c-1.87,14.77.84,18.42,7.45,19.92l0,0h0l22.08,4.07h.12a132.19,132.19,0,0,0,27.33-5.58V572.42c-2.76.44-5.41.81-8,1.13A232,232,0,0,1,1340,575.17Z" transform="translate(-61.31 -266.95)"/>

<path class="cls-2" d="M1305.58,484.65a122,122,0,0,1,13.21-.46c1.86,0,3.57,0,5.17.07,16.92.56,19.78,4.65,19.78,24.08,0,7.36-4.21,11.3-13.4,11.3h-5.24c-1,8.13-2.59,16.22-4.27,23.89h15.55c25.21,0,37.82-10.76,37.82-34.14,0-46.21-19.17-50.15-57-50.15l-3.4,0a118.72,118.72,0,0,0-23.53,2.18c-24,5.27-34,21.79-34,67.91,0,51.6,10.16,71,44.13,71.66a32.06,32.06,0,0,1-4.43-15.27,72.87,72.87,0,0,1,.66-13.53c-6.82-3.77-9.9-11.86-9.9-28.68h15.65c1.77-7.91,3.46-15.95,4.55-23.89h-20.2C1286.75,492.58,1292.19,486.16,1305.58,484.65Z" transform="translate(-61.31 -266.95)"/>

<path class="cls-3" d="M830.69,459.76c-4.84-11.26-13-20.84-32.17-17.64-14,2.34-30.94,13.44-52.35,27.49l-3.51,2.29c-8.29,5.44-17,11.11-26.16,16.56a295.31,295.31,0,0,1-35,18.27c-4.72,2-10.9,4.45-18.12,7v19.11c10-3.46,18.67-6.8,25.22-9.61a302.67,302.67,0,0,0,33.34-17.07c10-5.85,19.51-12,28.51-17.85l5.64-3.69c18.08-11.87,35.15-23.07,45.44-24.78,4-.68,6.62-.76,8.68.75a70.39,70.39,0,0,1,11.26-.87Z" transform="translate(-61.31 -266.95)"/>

<path class="cls-3" d="M1030.88,511.56q-10.44,3.85-20.65,7.05c-10.44,3.28-20.64,6-30.46,8.24-9.32,2.09-18.29,3.69-26.79,4.79v18.19c9.08-1.09,18.1-2.69,26.79-4.55,10.9-2.35,21.26-5.12,30.46-7.87,10.93-3.27,20.23-6.51,26.89-9,10.73-4,21.36-9.77,31.67-16.32v-7.19a27.15,27.15,0,0,0-2.62-12.6C1054.5,500.24,1042.69,507.19,1030.88,511.56Z" transform="translate(-61.31 -266.95)"/>

<path class="cls-3" d="M242,581.43c-48.34,1-90.79-11.6-126.23-37.5-26.53-19.4-39-39.42-39.11-39.62l-15.37,9.36c.56.92,14,22.77,43.12,44.25,48.37,35.69,101.73,42.28,138,41.51,131.69-2.77,203.4-47.43,245.51-80.32V496c-18.51,15.21-43.18,34.22-78.58,50.52C362,568.36,305.66,580.1,242,581.43Z" transform="translate(-61.31 -266.95)"/>

<path class="cls-3" d="M544.52,534.56c-1.95-2.53-.83-9.16.9-15.8.85-3.24,1.83-6.49,2.67-9.27,2-6.7,4-13.06,4.61-18.93.07-.68.14-1.35.18-2,.76-13.57-7.14-18.39-11.92-20.05-7.48-2.6-14.61-.78-22.59,3.92v17l6.42.21c4.42-3,8-4.75,10.08-4.2a13.43,13.43,0,0,1-.24,4.52,132.07,132.07,0,0,1-3.76,14.29c-1.49,4.9-3,10-4.09,15.1-2,9.58-2.11,18.95,3.5,26.21,5.31,6.87,14.17,10,27.09,9.42,25.18-1,51.93-6.34,75.5-12.75V523.5c-23.52,6.66-51,12.48-76.24,13.51C547.44,537.38,545,535.23,544.52,534.56Z" transform="translate(-61.31 -266.95)"/>

<path class="cls-3" d="M892,527.92c-12.1-3.62-21.43-8.08-28.71-13.07a63.37,63.37,0,0,1-23.49-29.09H825.09a32.1,32.1,0,0,0-4.43.29c5.15,14.57,13.6,31.61,34.66,45.11a121.48,121.48,0,0,0,29.25,13.29q7.62,2.4,16.53,4.35a122.12,122.12,0,0,0,21.42,2.52V533.26a102.22,102.22,0,0,1-17.62-2.06C900.29,530.21,896,529.11,892,527.92Z" transform="translate(-61.31 -266.95)"/>

<path class="cls-3" d="M1818.75,508.52c-49.72,47.92-114.84,83.07-165.88,89.55-44.19,5.62-79.31-20.12-113.28-45-11.31-8.29-22-16.12-32.92-22.75-19.53-11.86-43.52-16.86-69.37-14.47-3.43.32-6.88.78-10.32,1.36a148.08,148.08,0,0,0-30.46,8.52,125.53,125.53,0,0,0-19.27,9.63c-15.28,9.49-26.66,25.18-36.69,39l-.58.8a232,232,0,0,0,23.59-1.62c6.92-9,14.55-17.55,23.18-22.9a95.66,95.66,0,0,1,9.77-5.27,130.46,130.46,0,0,1,30.46-9.86c22.38-4.34,48.2-3.27,70.35,10.17,10.26,6.23,20.64,13.83,31.62,21.89,31.71,23.23,67.24,49.27,111.65,49.27a114.78,114.78,0,0,0,14.53-.92c26.16-3.32,56-13.5,86.4-29.43a397.74,397.74,0,0,0,89.72-65Z" transform="translate(-61.31 -266.95)"/>

<path class="cls-3" d="M1322,595.21H1322c-6.61-1.5-9.32-5.15-7.45-19.92.76-5.92,2.25-13.62,4.52-23.7.59-2.62,1.2-5.32,1.8-8.07,1.68-7.67,3.28-15.76,4.27-23.89.42-3.41.73-6.82.89-10.21a99,99,0,0,0-2-25.17c-1.6-.05-3.31-.07-5.17-.07a122,122,0,0,0-13.21.46,80.74,80.74,0,0,1,2.43,23.92c-.17,3.65-.56,7.35-1.06,11.07-1.09,7.94-2.78,16-4.55,23.89l-.93,4.11c-1.94,8.6-3.81,16.91-4.82,24.57a72.87,72.87,0,0,0-.66,13.53,32.06,32.06,0,0,0,4.43,15.27l.19.29c4.46,7,11.35,10.11,17.41,11.48,10,2.26,18.15-3.93,26.2-13.48l0,0h-.12Z" transform="translate(-61.31 -266.95)"/>

<path class="cls-3" d="M1285.46,442c-19.58-1-37.26,15.79-54.16,36.46h0c-5.37,6.56-10.66,13.51-15.91,20.41-3.16,4.15-6.49,8.54-9.88,12.84-1.74,2.2-3.49,4.39-5.24,6.5A147.4,147.4,0,0,1,1187,532.59L1176,543.53h-19.84v0h0a21.29,21.29,0,0,0,4.88,9.05c2.56,2.72,7.16,5.85,14.57,5.38,9-.58,17.5-6.07,26.13-14.47l0,0,0,0h0c9-8.8,18.16-20.79,28-33.68,2.07-2.73,4.21-5.54,6.4-8.37h0c15.86-20.57,34.09-42.19,48.42-41.42a15.2,15.2,0,0,1,5.74,1.45,118.72,118.72,0,0,1,23.53-2.18C1307.08,449.33,1297.62,442.64,1285.46,442Z" transform="translate(-61.31 -266.95)"/>

<path class="cls-3" d="M1157,503.08c-.71,5.75-1.39,11.3-1.84,16.52v0h18.07c.42-4.52,1-9.35,1.63-14.36.9-7.24,1.78-14.36,2.23-21.08.64-9.34.45-17.9-1.65-24.93a26,26,0,0,0-5.76-10.52c-3.1-3.34-8.77-7.22-18.1-6.74-17.85.92-37.53,15.38-60.28,32.25a47.21,47.21,0,0,1,6.77,17.38l3.23-2.39c19.85-14.71,38.6-28.62,51.2-29.26,2.28-.12,3.24.35,3.7.74a3.09,3.09,0,0,1,.31.28c3.37,3.63,3.24,14.8,2.25,26.17C1158.24,492.71,1157.55,498.29,1157,503.08Z" transform="translate(-61.31 -266.95)"/></svg>